<?xml version="1.0" standalone="no"?>
<!DOCTYPE svg PUBLIC "-//W3C//DTD SVG 20010904//EN"
 "http://www.w3.org/TR/2001/REC-SVG-20010904/DTD/svg10.dtd">
<svg version="1.0" xmlns="http://www.w3.org/2000/svg"
 width="1280.000000pt" height="956.000000pt" viewBox="0 0 1280.000000 956.000000"
 preserveAspectRatio="xMidYMid meet">
<metadata>
Created by potrace 1.15, written by Peter Selinger 2001-2017
</metadata>
<g transform="translate(0.000000,956.000000) scale(0.100000,-0.100000)"
fill="#000000" stroke="none">
<path d="M0 4780 l0 -4780 6400 0 6400 0 0 4780 0 4780 -2782 0 -2783 0 -45
-57 c-245 -309 -757 -443 -1190 -311 -175 54 -375 183 -474 307 l-49 61 -2739
0 -2738 0 0 -4780z m1177 4249 c73 -35 73 -36 73 -397 0 -309 -1 -320 -21
-346 -46 -58 -61 -61 -334 -61 -268 0 -282 2 -330 55 -19 21 -20 38 -23 350
l-3 328 28 32 c47 56 64 59 327 60 224 0 243 -1 283 -21z m1596 7 c18 -7 43
-26 57 -41 l25 -27 3 -321 c3 -441 20 -419 -319 -425 -261 -5 -314 3 -358 54
l-31 35 0 327 c0 364 -2 355 68 392 34 17 59 19 280 20 184 0 250 -3 275 -14z
m1607 -2 c22 -9 49 -29 61 -45 19 -27 20 -43 20 -348 -1 -225 -4 -327 -13
-345 -6 -15 -28 -37 -47 -49 -35 -21 -45 -22 -291 -22 -284 0 -301 3 -341 68
-18 30 -19 48 -17 354 l3 321 25 27 c47 51 66 54 322 55 196 0 245 -3 278 -16z
m1617 -3 c72 -33 73 -37 73 -399 0 -309 -1 -320 -21 -346 -46 -58 -61 -61
-334 -61 -268 0 -282 2 -330 55 -19 21 -20 38 -23 346 -3 368 -3 371 71 405
38 17 68 19 282 19 214 0 244 -2 282 -19z m1603 1 c19 -9 45 -32 57 -51 23
-34 23 -38 23 -345 0 -429 16 -408 -321 -414 -261 -5 -314 3 -358 54 l-31 35
0 327 c0 368 -2 359 74 393 36 16 68 19 281 18 205 0 245 -2 275 -17z m1609 0
c73 -37 72 -31 74 -393 1 -358 2 -351 -63 -392 -34 -21 -45 -22 -290 -22 -382
0 -362 -24 -358 427 l3 316 25 27 c47 51 66 54 330 55 214 0 249 -2 279 -18z
m1608 -1 c72 -33 73 -37 73 -399 0 -309 -1 -320 -21 -346 -46 -58 -61 -61
-334 -61 -273 0 -288 3 -334 61 -20 26 -21 37 -21 346 0 362 1 366 73 399 38
17 68 19 282 19 214 0 244 -2 282 -19z m1603 1 c19 -9 45 -32 57 -51 23 -34
23 -38 23 -340 0 -432 14 -414 -321 -419 -252 -4 -313 4 -359 49 l-30 31 0
332 c0 369 -2 359 68 396 34 17 58 19 282 19 210 0 250 -2 280 -17z m-151
-972 c128 -21 220 -95 241 -194 8 -36 10 -914 8 -3091 l-3 -3040 -28 -48 c-34
-57 -92 -102 -160 -122 -45 -13 -750 -15 -5927 -15 -5177 0 -5882 2 -5927 15
-68 20 -126 65 -160 122 l-28 48 -3 3040 c-2 2177 0 3055 8 3091 20 95 114
173 232 193 78 13 11667 14 11747 1z m-11112 -6727 c72 -34 73 -40 73 -393 0
-436 22 -410 -354 -410 -262 0 -290 4 -331 50 -19 21 -20 36 -20 360 0 324 1
339 20 360 40 45 65 49 328 50 212 0 254 -2 284 -17z m1612 -3 c69 -34 71 -48
71 -390 0 -340 -2 -351 -69 -388 -37 -21 -51 -22 -292 -22 -234 0 -257 2 -286
20 -69 42 -68 39 -66 393 3 352 2 349 66 387 29 18 52 20 285 20 231 0 256 -2
291 -20z m1601 5 c15 -8 38 -27 49 -41 20 -26 21 -37 21 -354 0 -440 26 -410
-350 -410 -383 0 -360 -27 -360 410 0 437 -24 409 358 410 204 0 259 -3 282
-15z m1607 -2 c72 -34 73 -40 73 -393 0 -436 22 -410 -354 -410 -268 0 -294 4
-334 55 -22 27 -22 34 -22 354 0 360 -1 352 64 392 28 17 53 19 284 19 217 0
259 -2 289 -17z m1601 3 c15 -8 37 -25 50 -39 23 -24 23 -25 25 -355 l2 -330
-25 -27 c-50 -53 -59 -55 -332 -55 -233 0 -256 2 -285 20 -69 41 -68 38 -66
398 2 358 -1 341 68 383 27 17 54 19 283 19 198 0 259 -3 280 -14z m1612 -1
c15 -8 38 -27 49 -41 20 -26 21 -37 21 -354 0 -440 26 -410 -350 -410 -231 0
-254 2 -290 20 -69 35 -70 40 -70 392 0 434 -23 407 358 408 204 0 259 -3 282
-15z m1607 -2 c72 -34 73 -40 73 -393 0 -436 22 -410 -354 -410 -268 0 -294 4
-334 55 -22 27 -22 34 -22 354 0 360 -1 352 64 392 28 17 53 19 284 19 217 0
259 -2 289 -17z m1601 3 c15 -8 37 -25 50 -39 23 -25 23 -25 25 -355 l2 -330
-25 -27 c-50 -53 -60 -55 -330 -55 -270 0 -280 2 -330 55 l-25 27 2 330 c2
364 -1 347 68 389 27 17 54 19 283 19 198 0 259 -3 280 -14z"/>
</g>
</svg>
